<svg width="28" height="31" viewBox="0 0 28 31" fill="none" xmlns="http://www.w3.org/2000/svg">
<path d="M19.9105 26.208C19.8084 26.2047 19.7067 26.2216 19.6113 26.2577C19.516 26.2937 19.4288 26.348 19.3551 26.4176C19.2814 26.4872 19.2225 26.5706 19.1819 26.6629C19.1414 26.7552 19.12 26.8545 19.1189 26.9551V29.325C19.1189 29.5316 19.2023 29.7298 19.3508 29.876C19.4992 30.0222 19.7005 30.1043 19.9105 30.1043C20.1204 30.1043 20.3217 30.0222 20.4702 29.876C20.6186 29.7298 20.702 29.5316 20.702 29.325V26.9872C20.7052 26.887 20.6882 26.7873 20.6519 26.6936C20.6156 26.6 20.5607 26.5144 20.4905 26.4419C20.4202 26.3693 20.3359 26.3113 20.2427 26.2712C20.1494 26.231 20.049 26.2095 19.9472 26.208H19.9105Z" fill="#5E60CE"/>
<path d="M13.3498 26.208C13.2459 26.2026 13.1421 26.2178 13.0443 26.2527C12.9466 26.2877 12.857 26.3415 12.7809 26.4113C12.7048 26.481 12.6436 26.565 12.6012 26.6585C12.5587 26.7519 12.5358 26.8528 12.5338 26.9551V29.325C12.5338 29.5317 12.6171 29.7299 12.7656 29.8761C12.914 30.0222 13.1154 30.1043 13.3253 30.1043C13.5352 30.1043 13.7365 30.0222 13.885 29.8761C14.0334 29.7299 14.1168 29.5317 14.1168 29.325V26.9873C14.1201 26.8871 14.103 26.7873 14.0667 26.6936C14.0304 26.6 13.9755 26.5145 13.9053 26.4419C13.835 26.3694 13.7508 26.3114 13.6575 26.2712C13.5642 26.231 13.4638 26.2095 13.362 26.208H13.3498Z" fill="#5E60CE"/>
<path d="M16.6179 26.208C16.5161 26.2058 16.4148 26.2235 16.3199 26.2599C16.2251 26.2963 16.1384 26.3507 16.0649 26.4201C15.9914 26.4895 15.9325 26.5724 15.8915 26.6642C15.8506 26.756 15.8285 26.8549 15.8263 26.9551V30.2207C15.8263 30.4274 15.9097 30.6256 16.0582 30.7718C16.2066 30.9179 16.4079 31 16.6179 31C16.8278 31 17.0291 30.9179 17.1776 30.7718C17.326 30.6256 17.4094 30.4274 17.4094 30.2207V27.0073C17.4126 26.9072 17.3956 26.8073 17.3593 26.7137C17.323 26.6201 17.2681 26.5345 17.1978 26.462C17.1276 26.3895 17.0433 26.3314 16.9501 26.2912C16.8568 26.2511 16.7564 26.2296 16.6546 26.2281L16.6179 26.208Z" fill="#5E60CE"/>
<path opacity="0.8" d="M27.9161 13.559C27.9161 15.0254 27.6273 16.4774 27.0661 17.8322C26.5049 19.1869 25.6824 20.4179 24.6456 21.4548C23.6087 22.4916 22.3777 23.3141 21.023 23.8753C19.6682 24.4365 18.2162 24.7253 16.7498 24.7253C15.2835 24.7253 13.8314 24.4365 12.4767 23.8753C11.1219 23.3141 9.89098 22.4916 8.85409 21.4548C7.81721 20.4179 6.99471 19.1869 6.43355 17.8322C5.8724 16.4774 5.58357 15.0254 5.58357 13.559C5.58357 10.5975 6.76001 7.75736 8.85409 5.66328C10.9482 3.5692 13.7884 2.39276 16.7498 2.39276C19.7113 2.39276 22.5515 3.5692 24.6456 5.66328C26.7396 7.75736 27.9161 10.5975 27.9161 13.559V13.559Z" fill="#0049BF"/>
<path fill-rule="evenodd" clip-rule="evenodd" d="M13.5595 0.79759C13.5595 0.586056 13.6435 0.383186 13.7931 0.233609C13.9427 0.0840317 14.1455 0 14.3571 0C16.7233 0 19.0364 0.701668 21.0038 2.01627C22.9713 3.33088 24.5047 5.19937 25.4102 7.38548C26.3157 9.57159 26.5527 11.9771 26.091 14.2979C25.6294 16.6186 24.4899 18.7504 22.8168 20.4236C21.1436 22.0967 19.0118 23.2362 16.6911 23.6978C14.3703 24.1594 11.9648 23.9225 9.77869 23.017C7.59258 22.1115 5.72409 20.578 4.40948 18.6106C3.09488 16.6432 2.39321 14.3301 2.39321 11.9638C2.39321 11.7523 2.47724 11.5494 2.62682 11.3999C2.7764 11.2503 2.97927 11.1663 3.1908 11.1663C3.40234 11.1663 3.60521 11.2503 3.75478 11.3999C3.90436 11.5494 3.98839 11.7523 3.98839 11.9638C3.98839 14.0146 4.5965 16.0193 5.73583 17.7244C6.87515 19.4295 8.49452 20.7585 10.3891 21.5432C12.2838 22.328 14.3686 22.5334 16.3799 22.1333C18.3912 21.7332 20.2387 20.7457 21.6888 19.2956C23.1389 17.8455 24.1264 15.998 24.5265 13.9867C24.9266 11.9753 24.7212 9.89056 23.9365 7.99593C23.1517 6.1013 21.8227 4.48194 20.1176 3.34262C18.4125 2.20329 16.4078 1.59518 14.3571 1.59518C14.1455 1.59518 13.9427 1.51115 13.7931 1.36157C13.6435 1.21199 13.5595 1.00912 13.5595 0.79759Z" fill="#3ABFF8"/>
<path d="M10.3691 1.19638C10.3691 1.51369 10.2431 1.81799 10.0187 2.04236C9.79433 2.26672 9.49003 2.39277 9.17273 2.39277C8.85543 2.39277 8.55112 2.26672 8.32675 2.04236C8.10239 1.81799 7.97634 1.51369 7.97634 1.19638C7.97634 0.879084 8.10239 0.574778 8.32675 0.350413C8.55112 0.126047 8.85543 0 9.17273 0C9.49003 0 9.79433 0.126047 10.0187 0.350413C10.2431 0.574778 10.3691 0.879084 10.3691 1.19638V1.19638ZM6.38116 3.58915C6.38116 3.90646 6.25511 4.21076 6.03075 4.43513C5.80638 4.65949 5.50208 4.78554 5.18478 4.78554C4.86748 4.78554 4.56317 4.65949 4.33881 4.43513C4.11444 4.21076 3.98839 3.90646 3.98839 3.58915C3.98839 3.27185 4.11444 2.96755 4.33881 2.74318C4.56317 2.51882 4.86748 2.39277 5.18478 2.39277C5.50208 2.39277 5.80638 2.51882 6.03075 2.74318C6.25511 2.96755 6.38116 3.27185 6.38116 3.58915ZM3.98839 7.5771C3.98839 7.8944 3.86235 8.19871 3.63798 8.42308C3.41361 8.64744 3.10931 8.77349 2.79201 8.77349C2.47471 8.77349 2.1704 8.64744 1.94604 8.42308C1.72167 8.19871 1.59562 7.8944 1.59562 7.5771C1.59562 7.2598 1.72167 6.9555 1.94604 6.73113C2.1704 6.50677 2.47471 6.38072 2.79201 6.38072C3.10931 6.38072 3.41361 6.50677 3.63798 6.73113C3.86235 6.9555 3.98839 7.2598 3.98839 7.5771Z" fill="#3ABFF8"/>
<path fill-rule="evenodd" clip-rule="evenodd" d="M7.09421 13.9164C7.18897 13.7272 7.20473 13.5082 7.13801 13.3075C7.0713 13.1068 6.92759 12.9408 6.73848 12.846L3.54812 11.2508C3.35924 11.158 3.14132 11.1436 2.94185 11.2107C2.74239 11.2779 2.57755 11.4211 2.48326 11.6093C2.38897 11.7975 2.37287 12.0153 2.43847 12.2152C2.50407 12.4152 2.64606 12.5812 2.83348 12.6769L6.02384 14.2721C6.21295 14.3668 6.43196 14.3826 6.63269 14.3159C6.83342 14.2492 6.99943 14.1055 7.09421 13.9164V13.9164Z" fill="#3ABFF8"/>
<path fill-rule="evenodd" clip-rule="evenodd" d="M3.7555 11.3991C3.82977 11.4732 3.8887 11.5612 3.92891 11.6581C3.96912 11.755 3.98982 11.8589 3.98982 11.9638C3.98982 12.0687 3.96912 12.1726 3.92891 12.2695C3.8887 12.3664 3.82977 12.4544 3.7555 12.5285L1.36273 14.9213C1.21317 15.0711 1.01025 15.1553 0.798597 15.1554C0.586946 15.1556 0.383903 15.0716 0.234137 14.9221C0.0843714 14.7725 0.000149777 14.5696 1.99574e-07 14.358C-0.000149378 14.1463 0.0837854 13.9433 0.23334 13.7935L2.62611 11.4007C2.7002 11.3265 2.78821 11.2675 2.88511 11.2273C2.98201 11.1871 3.08589 11.1664 3.1908 11.1664C3.29571 11.1664 3.39959 11.1871 3.49649 11.2273C3.59339 11.2675 3.68141 11.3265 3.7555 11.4007V11.3991ZM14.3571 6.38071C14.5686 6.38071 14.7715 6.46474 14.921 6.61432C15.0706 6.76389 15.1546 6.96676 15.1546 7.1783V11.9638C15.1546 12.1754 15.0706 12.3782 14.921 12.5278C14.7715 12.6774 14.5686 12.7614 14.3571 12.7614C14.1455 12.7614 13.9427 12.6774 13.7931 12.5278C13.6435 12.3782 13.5595 12.1754 13.5595 11.9638V7.1783C13.5595 6.96676 13.6435 6.76389 13.7931 6.61432C13.9427 6.46474 14.1455 6.38071 14.3571 6.38071Z" fill="#3ABFF8"/>
<path fill-rule="evenodd" clip-rule="evenodd" d="M19.9402 11.9638C19.9402 12.1754 19.8562 12.3783 19.7066 12.5278C19.557 12.6774 19.3541 12.7614 19.1426 12.7614H14.3571C14.1455 12.7614 13.9427 12.6774 13.7931 12.5278C13.6435 12.3783 13.5595 12.1754 13.5595 11.9638C13.5595 11.7523 13.6435 11.5494 13.7931 11.3999C13.9427 11.2503 14.1455 11.1663 14.3571 11.1663H19.1426C19.3541 11.1663 19.557 11.2503 19.7066 11.3999C19.8562 11.5494 19.9402 11.7523 19.9402 11.9638Z" fill="#3ABFF8"/>
</svg>
