<svg width="415" height="75" viewBox="0 0 415 75" fill="none" xmlns="http://www.w3.org/2000/svg">
<path d="M80.9193 59.8383C77.5359 59.8383 74.6255 59.1215 72.1883 57.6878C69.7654 56.2398 67.9017 54.2327 66.597 51.6664C65.3067 49.1002 64.6616 46.1468 64.6616 42.8064C64.6616 39.4229 65.3139 36.4552 66.6185 33.9033C67.9375 31.3371 69.8084 29.3371 72.2313 27.9034C74.6542 26.4554 77.5359 25.7314 80.8763 25.7314C83.758 25.7314 86.2812 26.2547 88.4461 27.3013C90.6109 28.3479 92.3241 29.8174 93.5857 31.7098C94.8474 33.6023 95.5427 35.8244 95.6717 38.3764H87.0267C86.783 36.7276 86.1379 35.4015 85.0913 34.3979C84.0591 33.38 82.7042 32.8711 81.0269 32.8711C79.6075 32.8711 78.3674 33.2582 77.3065 34.0324C76.2599 34.7922 75.4427 35.9033 74.8549 37.3656C74.2671 38.828 73.9732 40.5985 73.9732 42.6773C73.9732 44.7848 74.26 46.5769 74.8334 48.0536C75.4212 49.5303 76.2456 50.6557 77.3065 51.4299C78.3674 52.204 79.6075 52.5911 81.0269 52.5911C82.0734 52.5911 83.0125 52.3761 83.844 51.946C84.6899 51.5159 85.3852 50.8922 85.93 50.075C86.4891 49.2435 86.8547 48.2471 87.0267 47.0859H95.6717C95.5284 49.6091 94.8402 51.8313 93.6072 53.7524C92.3886 55.6592 90.7041 57.1502 88.5536 58.2254C86.4031 59.3007 83.8583 59.8383 80.9193 59.8383ZM116.462 59.8383C113.121 59.8383 110.232 59.1286 107.795 57.7093C105.372 56.2756 103.501 54.2828 102.182 51.7309C100.863 49.1647 100.204 46.1898 100.204 42.8064C100.204 39.3943 100.863 36.4122 102.182 33.8603C103.501 31.2941 105.372 29.3013 107.795 27.8819C110.232 26.4483 113.121 25.7314 116.462 25.7314C119.802 25.7314 122.684 26.4483 125.107 27.8819C127.544 29.3013 129.422 31.2941 130.741 33.8603C132.06 36.4122 132.719 39.3943 132.719 42.8064C132.719 46.1898 132.06 49.1647 130.741 51.7309C129.422 54.2828 127.544 56.2756 125.107 57.7093C122.684 59.1286 119.802 59.8383 116.462 59.8383ZM116.505 52.7417C118.024 52.7417 119.293 52.3116 120.311 51.4514C121.329 50.5768 122.096 49.3869 122.612 47.8815C123.143 46.3762 123.408 44.663 123.408 42.7419C123.408 40.8208 123.143 39.1075 122.612 37.6022C122.096 36.0968 121.329 34.9069 120.311 34.0324C119.293 33.1578 118.024 32.7206 116.505 32.7206C114.971 32.7206 113.68 33.1578 112.634 34.0324C111.602 34.9069 110.82 36.0968 110.29 37.6022C109.774 39.1075 109.516 40.8208 109.516 42.7419C109.516 44.663 109.774 46.3762 110.29 47.8815C110.82 49.3869 111.602 50.5768 112.634 51.4514C113.68 52.3116 114.971 52.7417 116.505 52.7417ZM159.859 45.1289V26.1615H169.02V59.1931H160.224V53.1933H159.88C159.135 55.1287 157.894 56.6842 156.16 57.8598C154.439 59.0354 152.339 59.6232 149.859 59.6232C147.651 59.6232 145.708 59.1215 144.031 58.1179C142.354 57.1143 141.042 55.6878 140.096 53.8384C139.164 51.989 138.691 49.774 138.676 47.1934V26.1615H147.837V45.559C147.852 47.5088 148.375 49.05 149.407 50.1826C150.439 51.3152 151.823 51.8815 153.558 51.8815C154.662 51.8815 155.694 51.6306 156.654 51.1288C157.615 50.6127 158.389 49.8528 158.977 48.8493C159.579 47.8457 159.873 46.6056 159.859 45.1289ZM185.509 40.0968V59.1931H176.348V26.1615H185.079V31.9894H185.466C186.197 30.0683 187.423 28.5486 189.143 27.4303C190.863 26.2977 192.949 25.7314 195.401 25.7314C197.695 25.7314 199.695 26.2332 201.401 27.2368C203.107 28.2404 204.433 29.674 205.379 31.5378C206.325 33.3872 206.799 35.595 206.799 38.1613V59.1931H197.637V39.7957C197.652 37.7742 197.136 36.1972 196.089 35.0646C195.043 33.9177 193.602 33.3442 191.767 33.3442C190.534 33.3442 189.444 33.6094 188.498 34.1399C187.566 34.6703 186.835 35.4445 186.304 36.4624C185.788 37.466 185.523 38.6774 185.509 40.0968ZM231.588 26.1615V33.0431H211.696V26.1615H231.588ZM216.212 18.2477H225.373V49.0428C225.373 49.8887 225.502 50.5482 225.761 51.0213C226.019 51.48 226.377 51.8026 226.836 51.989C227.309 52.1754 227.854 52.2686 228.47 52.2686C228.9 52.2686 229.33 52.2327 229.76 52.161C230.191 52.075 230.52 52.0105 230.75 51.9675L232.191 58.7846C231.732 58.9279 231.087 59.0928 230.255 59.2792C229.424 59.4799 228.413 59.6017 227.223 59.6447C225.015 59.7308 223.08 59.4369 221.417 58.763C219.768 58.0892 218.485 57.0427 217.567 55.6233C216.65 54.204 216.198 52.4119 216.212 50.2471V18.2477Z" fill="#3ABFF8"/>
<path d="M249.728 59.7308C247.219 59.7308 244.947 59.0856 242.911 57.7953C240.889 56.4907 239.284 54.5767 238.094 52.0535C236.918 49.5159 236.33 46.4049 236.33 42.7204C236.33 38.9355 236.94 35.7886 238.158 33.2797C239.377 30.7564 240.997 28.8712 243.018 27.6239C245.054 26.3623 247.283 25.7314 249.706 25.7314C251.556 25.7314 253.097 26.0469 254.33 26.6777C255.577 27.2941 256.581 28.0683 257.341 29.0002C258.115 29.9177 258.703 30.8209 259.104 31.7098H259.384V15.151H268.523V59.1931H259.491V53.9029H259.104C258.674 54.8205 258.065 55.7308 257.276 56.6341C256.502 57.5229 255.491 58.2613 254.244 58.8491C253.011 59.4369 251.506 59.7308 249.728 59.7308ZM252.631 52.4406C254.108 52.4406 255.355 52.0392 256.373 51.2363C257.405 50.4191 258.194 49.2794 258.738 47.817C259.298 46.3547 259.577 44.6415 259.577 42.6773C259.577 40.7132 259.305 39.0072 258.76 37.5592C258.215 36.1112 257.427 34.9929 256.394 34.2044C255.362 33.4159 254.108 33.0216 252.631 33.0216C251.126 33.0216 249.857 33.4302 248.825 34.2474C247.792 35.0646 247.011 36.1972 246.481 37.6452C245.95 39.0932 245.685 40.7706 245.685 42.6773C245.685 44.5985 245.95 46.2973 246.481 47.774C247.025 49.2364 247.807 50.3833 248.825 51.2148C249.857 52.032 251.126 52.4406 252.631 52.4406ZM290.98 59.8383C287.639 59.8383 284.75 59.1286 282.313 57.7093C279.89 56.2756 278.019 54.2828 276.7 51.7309C275.381 49.1647 274.722 46.1898 274.722 42.8064C274.722 39.3943 275.381 36.4122 276.7 33.8603C278.019 31.2941 279.89 29.3013 282.313 27.8819C284.75 26.4483 287.639 25.7314 290.98 25.7314C294.32 25.7314 297.202 26.4483 299.625 27.8819C302.062 29.3013 303.94 31.2941 305.259 33.8603C306.578 36.4122 307.237 39.3943 307.237 42.8064C307.237 46.1898 306.578 49.1647 305.259 51.7309C303.94 54.2828 302.062 56.2756 299.625 57.7093C297.202 59.1286 294.32 59.8383 290.98 59.8383ZM291.023 52.7417C292.542 52.7417 293.811 52.3116 294.829 51.4514C295.847 50.5768 296.614 49.3869 297.13 47.8815C297.661 46.3762 297.926 44.663 297.926 42.7419C297.926 40.8208 297.661 39.1075 297.13 37.6022C296.614 36.0968 295.847 34.9069 294.829 34.0324C293.811 33.1578 292.542 32.7206 291.023 32.7206C289.489 32.7206 288.198 33.1578 287.152 34.0324C286.12 34.9069 285.338 36.0968 284.808 37.6022C284.292 39.1075 284.034 40.8208 284.034 42.7419C284.034 44.663 284.292 46.3762 284.808 47.8815C285.338 49.3869 286.12 50.5768 287.152 51.4514C288.198 52.3116 289.489 52.7417 291.023 52.7417ZM318.882 59.1931L309.893 26.1615H319.162L324.28 48.3547H324.581L329.914 26.1615H339.011L344.43 48.2256H344.71L349.742 26.1615H358.989L350.022 59.1931H340.323L334.645 38.4194H334.237L328.56 59.1931H318.882ZM373.037 40.0968V59.1931H363.876V26.1615H372.607V31.9894H372.994C373.725 30.0683 374.951 28.5486 376.672 27.4303C378.392 26.2977 380.478 25.7314 382.929 25.7314C385.223 25.7314 387.223 26.2332 388.929 27.2368C390.635 28.2404 391.962 29.674 392.908 31.5378C393.854 33.3872 394.327 35.595 394.327 38.1613V59.1931H385.166V39.7957C385.18 37.7742 384.664 36.1972 383.618 35.0646C382.571 33.9177 381.13 33.3442 379.295 33.3442C378.062 33.3442 376.973 33.6094 376.026 34.1399C375.095 34.6703 374.363 35.4445 373.833 36.4624C373.317 37.466 373.052 38.6774 373.037 40.0968Z" fill="#316BCA"/>
<path d="M35.4629 55.7782C35.281 55.7724 35.0999 55.8025 34.93 55.8667C34.7602 55.9308 34.605 56.0276 34.4737 56.1516C34.3424 56.2756 34.2375 56.4241 34.1652 56.5885C34.0931 56.7528 34.0549 56.9298 34.053 57.1089V61.33C34.053 61.698 34.2016 62.0511 34.466 62.3114C34.7303 62.5717 35.0889 62.7179 35.4629 62.7179C35.8367 62.7179 36.1953 62.5717 36.4597 62.3114C36.7241 62.0511 36.8726 61.698 36.8726 61.33V57.1661C36.8784 56.9877 36.8481 56.81 36.7834 56.6432C36.7187 56.4764 36.621 56.324 36.4959 56.1948C36.3708 56.0656 36.2207 55.9623 36.0546 55.8907C35.8885 55.8192 35.7096 55.7809 35.5282 55.7782H35.4629Z" fill="#5E60CE"/>
<path d="M23.7775 55.7782C23.5925 55.7686 23.4075 55.7957 23.2335 55.8579C23.0594 55.9201 22.8998 56.0161 22.7642 56.1403C22.6286 56.2644 22.5198 56.4142 22.4442 56.5806C22.3685 56.747 22.3277 56.9266 22.3241 57.109V61.33C22.3241 61.6981 22.4726 62.0512 22.737 62.3115C23.0014 62.5718 23.36 62.718 23.7339 62.718C24.1078 62.718 24.4663 62.5718 24.7307 62.3115C24.9951 62.0512 25.1436 61.6981 25.1436 61.33V57.1662C25.1494 56.9877 25.1191 56.81 25.0544 56.6432C24.9897 56.4765 24.892 56.3241 24.7669 56.1949C24.6417 56.0656 24.4917 55.9623 24.3256 55.8908C24.1595 55.8192 23.9805 55.781 23.7993 55.7782H23.7775Z" fill="#5E60CE"/>
<path d="M29.5984 55.7782C29.417 55.7744 29.2367 55.8058 29.0677 55.8707C28.8987 55.9354 28.7444 56.0324 28.6134 56.156C28.4825 56.2796 28.3776 56.4273 28.3047 56.5908C28.2318 56.7543 28.1923 56.9303 28.1885 57.1089V62.9254C28.1885 63.2935 28.3371 63.6465 28.6014 63.9068C28.8658 64.1671 29.2244 64.3133 29.5984 64.3133C29.9722 64.3133 30.3308 64.1671 30.5952 63.9068C30.8596 63.6465 31.0081 63.2935 31.0081 62.9254V57.2019C31.0139 57.0235 30.9836 56.8457 30.9189 56.679C30.8542 56.5122 30.7565 56.3598 30.6314 56.2306C30.5062 56.1014 30.3562 55.998 30.19 55.9265C30.0239 55.8549 29.845 55.8167 29.6637 55.8139L29.5984 55.7782Z" fill="#5E60CE"/>
<path opacity="0.8" d="M49.7218 33.2489C49.7218 35.8607 49.2074 38.4469 48.2079 40.8599C47.2084 43.2728 45.7434 45.4653 43.8966 47.3121C42.0498 49.1589 39.8573 50.6239 37.4443 51.6234C35.0314 52.6229 32.4452 53.1373 29.8334 53.1373C27.2216 53.1373 24.6354 52.6229 22.2224 51.6234C19.8095 50.6239 17.617 49.1589 15.7702 47.3121C13.9234 45.4653 12.4584 43.2728 11.4589 40.8599C10.4594 38.4469 9.94499 35.8607 9.94499 33.2489C9.94499 27.9742 12.0404 22.9155 15.7702 19.1857C19.5 15.4559 24.5587 13.3605 29.8334 13.3605C35.1081 13.3605 40.1668 15.4559 43.8966 19.1857C47.6264 22.9155 49.7218 27.9742 49.7218 33.2489V33.2489Z" fill="#0049BF"/>
<path fill-rule="evenodd" clip-rule="evenodd" d="M24.151 10.5193C24.151 10.1426 24.3007 9.78122 24.5671 9.51481C24.8335 9.24839 25.1948 9.09872 25.5716 9.09872C29.7861 9.09872 33.906 10.3485 37.4102 12.6899C40.9145 15.0314 43.6457 18.3594 45.2585 22.2531C46.8714 26.1468 47.2934 30.4314 46.4711 34.5649C45.6489 38.6984 43.6194 42.4953 40.6393 45.4755C37.6592 48.4556 33.8623 50.4851 29.7288 51.3073C25.5952 52.1295 21.3107 51.7075 17.417 50.0947C13.5233 48.4818 10.1953 45.7506 7.8538 42.2464C5.51234 38.7421 4.26259 34.6222 4.26259 30.4077C4.26259 30.031 4.41226 29.6696 4.67867 29.4032C4.94509 29.1368 5.30642 28.9871 5.68319 28.9871C6.05995 28.9871 6.42129 29.1368 6.6877 29.4032C6.95412 29.6696 7.10379 30.031 7.10379 30.4077C7.10379 34.0603 8.18691 37.6309 10.2162 40.6679C12.2454 43.7049 15.1297 46.072 18.5043 47.4697C21.8788 48.8675 25.5921 49.2333 29.1745 48.5207C32.7569 47.8081 36.0475 46.0492 38.6303 43.4664C41.2131 40.8837 42.972 37.593 43.6845 34.0106C44.3971 30.4282 44.0314 26.715 42.6336 23.3404C41.2358 19.9659 38.8688 17.0816 35.8317 15.0523C32.7947 13.023 29.2242 11.9399 25.5716 11.9399C25.1948 11.9399 24.8335 11.7903 24.5671 11.5238C24.3007 11.2574 24.151 10.8961 24.151 10.5193Z" fill="#3ABFF8"/>
<path d="M18.4686 11.2296C18.4686 11.7948 18.2441 12.3368 17.8445 12.7364C17.4448 13.136 16.9028 13.3605 16.3377 13.3605C15.7725 13.3605 15.2305 13.136 14.8309 12.7364C14.4313 12.3368 14.2068 11.7948 14.2068 11.2296C14.2068 10.6645 14.4313 10.1225 14.8309 9.72285C15.2305 9.32323 15.7725 9.09872 16.3377 9.09872C16.9028 9.09872 17.4448 9.32323 17.8445 9.72285C18.2441 10.1225 18.4686 10.6645 18.4686 11.2296V11.2296ZM11.3656 15.4914C11.3656 16.0566 11.1411 16.5986 10.7415 16.9982C10.3418 17.3978 9.79983 17.6223 9.23468 17.6223C8.66953 17.6223 8.12753 17.3978 7.72791 16.9982C7.32829 16.5986 7.10378 16.0566 7.10378 15.4914C7.10378 14.9263 7.32829 14.3843 7.72791 13.9847C8.12753 13.585 8.66953 13.3605 9.23468 13.3605C9.79983 13.3605 10.3418 13.585 10.7415 13.9847C11.1411 14.3843 11.3656 14.9263 11.3656 15.4914ZM7.10378 22.5944C7.10378 23.1596 6.87928 23.7016 6.47966 24.1012C6.08004 24.5008 5.53803 24.7253 4.97288 24.7253C4.40773 24.7253 3.86573 24.5008 3.46611 24.1012C3.06649 23.7016 2.84198 23.1596 2.84198 22.5944C2.84198 22.0293 3.06649 21.4873 3.46611 21.0876C3.86573 20.688 4.40773 20.4635 4.97288 20.4635C5.53803 20.4635 6.08004 20.688 6.47966 21.0876C6.87928 21.4873 7.10378 22.0293 7.10378 22.5944Z" fill="#3ABFF8"/>
<path fill-rule="evenodd" clip-rule="evenodd" d="M12.6356 33.8854C12.8044 33.5485 12.8324 33.1585 12.7136 32.8009C12.5948 32.4434 12.3388 32.1477 12.002 31.9789L6.31961 29.1377C5.98319 28.9724 5.59505 28.9467 5.23978 29.0663C4.88451 29.1859 4.59091 29.4411 4.42297 29.7762C4.25503 30.1114 4.22635 30.4993 4.3432 30.8555C4.46004 31.2117 4.71293 31.5072 5.04676 31.6778L10.7292 34.519C11.066 34.6877 11.4561 34.7158 11.8136 34.597C12.1711 34.4782 12.4668 34.2222 12.6356 33.8854V33.8854Z" fill="#3ABFF8"/>
<path fill-rule="evenodd" clip-rule="evenodd" d="M6.68897 29.4019C6.82127 29.5338 6.92623 29.6906 6.99785 29.8632C7.06947 30.0358 7.10633 30.2208 7.10633 30.4077C7.10633 30.5945 7.06947 30.7795 6.99785 30.9521C6.92623 31.1247 6.82127 31.2815 6.68897 31.4135L2.42717 35.6753C2.1608 35.942 1.79937 36.092 1.42239 36.0923C1.04542 36.0925 0.683777 35.943 0.417026 35.6767C0.150275 35.4103 0.00026677 35.0489 3.55465e-07 34.6719C-0.000266059 34.2949 0.149231 33.9333 0.415605 33.6665L4.6774 29.4047C4.80937 29.2724 4.96613 29.1675 5.13872 29.0959C5.31131 29.0242 5.49633 28.9874 5.68319 28.9874C5.87005 28.9874 6.05507 29.0242 6.22766 29.0959C6.40025 29.1675 6.55701 29.2724 6.68897 29.4047V29.4019ZM25.5716 20.4635C25.9484 20.4635 26.3097 20.6131 26.5761 20.8796C26.8425 21.146 26.9922 21.5073 26.9922 21.8841V30.4077C26.9922 30.7844 26.8425 31.1458 26.5761 31.4122C26.3097 31.6786 25.9484 31.8283 25.5716 31.8283C25.1948 31.8283 24.8335 31.6786 24.5671 31.4122C24.3007 31.1458 24.151 30.7844 24.151 30.4077V21.8841C24.151 21.5073 24.3007 21.146 24.5671 20.8796C24.8335 20.6131 25.1948 20.4635 25.5716 20.4635Z" fill="#3ABFF8"/>
<path fill-rule="evenodd" clip-rule="evenodd" d="M35.5158 30.4077C35.5158 30.7845 35.3661 31.1458 35.0997 31.4122C34.8333 31.6786 34.472 31.8283 34.0952 31.8283H25.5716C25.1948 31.8283 24.8335 31.6786 24.5671 31.4122C24.3007 31.1458 24.151 30.7845 24.151 30.4077C24.151 30.0309 24.3007 29.6696 24.5671 29.4032C24.8335 29.1368 25.1948 28.9871 25.5716 28.9871H34.0952C34.472 28.9871 34.8333 29.1368 35.0997 29.4032C35.3661 29.6696 35.5158 30.0309 35.5158 30.4077Z" fill="#3ABFF8"/>
</svg>
