<svg width="415" height="75" viewBox="0 0 415 75" fill="none" xmlns="http://www.w3.org/2000/svg">
<path d="M80.9193 59.6451C77.5359 59.6451 74.6255 58.9283 72.1883 57.4947C69.7654 56.0467 67.9017 54.0395 66.597 51.4733C65.3067 48.907 64.6616 45.9537 64.6616 42.6132C64.6616 39.2298 65.3139 36.2621 66.6185 33.7102C67.9375 31.1439 69.8084 29.144 72.2313 27.7103C74.6542 26.2623 77.5359 25.5383 80.8763 25.5383C83.758 25.5383 86.2812 26.0616 88.4461 27.1082C90.6109 28.1547 92.3241 29.6242 93.5857 31.5167C94.8474 33.4091 95.5427 35.6313 95.6717 38.1832H87.0267C86.783 36.5345 86.1379 35.2084 85.0913 34.2048C84.0591 33.1869 82.7042 32.6779 81.0269 32.6779C79.6075 32.6779 78.3674 33.065 77.3065 33.8392C76.2599 34.5991 75.4427 35.7101 74.8549 37.1725C74.2671 38.6348 73.9732 40.4054 73.9732 42.4842C73.9732 44.5917 74.26 46.3838 74.8334 47.8604C75.4212 49.3371 76.2456 50.4625 77.3065 51.2367C78.3674 52.0109 79.6075 52.398 81.0269 52.398C82.0734 52.398 83.0125 52.1829 83.844 51.7528C84.6899 51.3227 85.3852 50.6991 85.93 49.8819C86.4891 49.0504 86.8547 48.054 87.0267 46.8927H95.6717C95.5284 49.416 94.8402 51.6381 93.6072 53.5592C92.3886 55.466 90.7041 56.957 88.5536 58.0323C86.4031 59.1075 83.8583 59.6451 80.9193 59.6451ZM116.462 59.6451C113.121 59.6451 110.232 58.9355 107.795 57.5162C105.372 56.0825 103.501 54.0897 102.182 51.5378C100.863 48.9715 100.204 45.9967 100.204 42.6132C100.204 39.2011 100.863 36.2191 102.182 33.6672C103.501 31.1009 105.372 29.1081 107.795 27.6888C110.232 26.2551 113.121 25.5383 116.462 25.5383C119.802 25.5383 122.684 26.2551 125.107 27.6888C127.544 29.1081 129.422 31.1009 130.741 33.6672C132.06 36.2191 132.719 39.2011 132.719 42.6132C132.719 45.9967 132.06 48.9715 130.741 51.5378C129.422 54.0897 127.544 56.0825 125.107 57.5162C122.684 58.9355 119.802 59.6451 116.462 59.6451ZM116.505 52.5485C118.024 52.5485 119.293 52.1184 120.311 51.2582C121.329 50.3837 122.096 49.1937 122.612 47.6884C123.143 46.183 123.408 44.4698 123.408 42.5487C123.408 40.6276 123.143 38.9144 122.612 37.409C122.096 35.9037 121.329 34.7137 120.311 33.8392C119.293 32.9647 118.024 32.5274 116.505 32.5274C114.971 32.5274 113.68 32.9647 112.634 33.8392C111.602 34.7137 110.82 35.9037 110.29 37.409C109.774 38.9144 109.516 40.6276 109.516 42.5487C109.516 44.4698 109.774 46.183 110.29 47.6884C110.82 49.1937 111.602 50.3837 112.634 51.2582C113.68 52.1184 114.971 52.5485 116.505 52.5485ZM159.859 44.9358V25.9684H169.02V59H160.224V53.0001H159.88C159.135 54.9356 157.894 56.4911 156.16 57.6667C154.439 58.8423 152.339 59.4301 149.859 59.4301C147.651 59.4301 145.708 58.9283 144.031 57.9248C142.354 56.9212 141.042 55.4947 140.096 53.6453C139.164 51.7958 138.691 49.5808 138.676 47.0002V25.9684H147.837V45.3659C147.852 47.3156 148.375 48.8568 149.407 49.9894C150.439 51.122 151.823 51.6883 153.558 51.6883C154.662 51.6883 155.694 51.4374 156.654 50.9356C157.615 50.4195 158.389 49.6597 158.977 48.6561C159.579 47.6526 159.873 46.4124 159.859 44.9358ZM185.509 39.9036V59H176.348V25.9684H185.079V31.7962H185.466C186.197 29.8751 187.423 28.3554 189.143 27.2372C190.863 26.1046 192.949 25.5383 195.401 25.5383C197.695 25.5383 199.695 26.0401 201.401 27.0436C203.107 28.0472 204.433 29.4809 205.379 31.3446C206.325 33.1941 206.799 35.4019 206.799 37.9682V59H197.637V39.6025C197.652 37.5811 197.136 36.004 196.089 34.8714C195.043 33.7245 193.602 33.1511 191.767 33.1511C190.534 33.1511 189.444 33.4163 188.498 33.9467C187.566 34.4772 186.835 35.2514 186.304 36.2693C185.788 37.2728 185.523 38.4843 185.509 39.9036ZM231.588 25.9684V32.85H211.696V25.9684H231.588ZM216.212 18.0546H225.373V48.8497C225.373 49.6955 225.502 50.355 225.761 50.8281C226.019 51.2869 226.377 51.6095 226.836 51.7958C227.309 51.9822 227.854 52.0754 228.47 52.0754C228.9 52.0754 229.33 52.0396 229.76 51.9679C230.191 51.8819 230.52 51.8173 230.75 51.7743L232.191 58.5914C231.732 58.7348 231.087 58.8996 230.255 59.086C229.424 59.2867 228.413 59.4086 227.223 59.4516C225.015 59.5376 223.08 59.2437 221.417 58.5699C219.768 57.8961 218.485 56.8495 217.567 55.4302C216.65 54.0109 216.198 52.2188 216.212 50.0539V18.0546Z" fill="#3ABFF8"/>
<path d="M249.728 59.5376C247.219 59.5376 244.947 58.8925 242.911 57.6022C240.889 56.2975 239.284 54.3836 238.094 51.8604C236.918 49.3228 236.33 46.2117 236.33 42.5272C236.33 38.7423 236.94 35.5954 238.158 33.0865C239.377 30.5633 240.997 28.678 243.018 27.4307C245.054 26.1691 247.283 25.5383 249.706 25.5383C251.556 25.5383 253.097 25.8537 254.33 26.4845C255.577 27.101 256.581 27.8752 257.341 28.8071C258.115 29.7246 258.703 30.6278 259.104 31.5167H259.384V14.9579H268.523V59H259.491V53.7098H259.104C258.674 54.6273 258.065 55.5377 257.276 56.4409C256.502 57.3298 255.491 58.0681 254.244 58.6559C253.011 59.2437 251.506 59.5376 249.728 59.5376ZM252.631 52.2474C254.108 52.2474 255.355 51.846 256.373 51.0432C257.405 50.226 258.194 49.0862 258.738 47.6239C259.298 46.1615 259.577 44.4483 259.577 42.4842C259.577 40.5201 259.305 38.814 258.76 37.366C258.215 35.918 257.427 34.7998 256.394 34.0112C255.362 33.2227 254.108 32.8285 252.631 32.8285C251.126 32.8285 249.857 33.2371 248.825 34.0543C247.792 34.8714 247.011 36.004 246.481 37.452C245.95 38.9 245.685 40.5774 245.685 42.4842C245.685 44.4053 245.95 46.1042 246.481 47.5809C247.025 49.0432 247.807 50.1901 248.825 51.0217C249.857 51.8389 251.126 52.2474 252.631 52.2474ZM290.98 59.6451C287.639 59.6451 284.75 58.9355 282.313 57.5162C279.89 56.0825 278.019 54.0897 276.7 51.5378C275.381 48.9715 274.722 45.9967 274.722 42.6132C274.722 39.2011 275.381 36.2191 276.7 33.6672C278.019 31.1009 279.89 29.1081 282.313 27.6888C284.75 26.2551 287.639 25.5383 290.98 25.5383C294.32 25.5383 297.202 26.2551 299.625 27.6888C302.062 29.1081 303.94 31.1009 305.259 33.6672C306.578 36.2191 307.237 39.2011 307.237 42.6132C307.237 45.9967 306.578 48.9715 305.259 51.5378C303.94 54.0897 302.062 56.0825 299.625 57.5162C297.202 58.9355 294.32 59.6451 290.98 59.6451ZM291.023 52.5485C292.542 52.5485 293.811 52.1184 294.829 51.2582C295.847 50.3837 296.614 49.1937 297.13 47.6884C297.661 46.183 297.926 44.4698 297.926 42.5487C297.926 40.6276 297.661 38.9144 297.13 37.409C296.614 35.9037 295.847 34.7137 294.829 33.8392C293.811 32.9647 292.542 32.5274 291.023 32.5274C289.489 32.5274 288.198 32.9647 287.152 33.8392C286.12 34.7137 285.338 35.9037 284.808 37.409C284.292 38.9144 284.034 40.6276 284.034 42.5487C284.034 44.4698 284.292 46.183 284.808 47.6884C285.338 49.1937 286.12 50.3837 287.152 51.2582C288.198 52.1184 289.489 52.5485 291.023 52.5485ZM318.882 59L309.893 25.9684H319.162L324.28 48.1615H324.581L329.914 25.9684H339.011L344.43 48.0325H344.71L349.742 25.9684H358.989L350.022 59H340.323L334.645 38.2262H334.237L328.56 59H318.882ZM373.037 39.9036V59H363.876V25.9684H372.607V31.7962H372.994C373.725 29.8751 374.951 28.3554 376.672 27.2372C378.392 26.1046 380.478 25.5383 382.929 25.5383C385.223 25.5383 387.223 26.0401 388.929 27.0436C390.635 28.0472 391.962 29.4809 392.908 31.3446C393.854 33.1941 394.327 35.4019 394.327 37.9682V59H385.166V39.6025C385.18 37.5811 384.664 36.004 383.618 34.8714C382.571 33.7245 381.13 33.1511 379.295 33.1511C378.062 33.1511 376.973 33.4163 376.026 33.9467C375.095 34.4772 374.363 35.2514 373.833 36.2693C373.317 37.2728 373.052 38.4843 373.037 39.9036Z" fill="#316BCA"/>
<path d="M35.4629 55.5851C35.281 55.5793 35.0999 55.6094 34.93 55.6735C34.7602 55.7377 34.605 55.8345 34.4737 55.9585C34.3424 56.0825 34.2375 56.2309 34.1652 56.3953C34.0931 56.5597 34.0549 56.7367 34.053 56.9158V61.1368C34.053 61.5049 34.2016 61.8579 34.466 62.1183C34.7303 62.3786 35.0889 62.5248 35.4629 62.5248C35.8367 62.5248 36.1953 62.3786 36.4597 62.1183C36.7241 61.8579 36.8726 61.5049 36.8726 61.1368V56.973C36.8784 56.7945 36.8481 56.6168 36.7834 56.45C36.7187 56.2833 36.621 56.1309 36.4959 56.0017C36.3708 55.8724 36.2207 55.7691 36.0546 55.6976C35.8885 55.626 35.7096 55.5878 35.5282 55.5851H35.4629Z" fill="#5E60CE"/>
<path d="M23.7775 55.5851C23.5925 55.5755 23.4075 55.6025 23.2335 55.6648C23.0594 55.727 22.8998 55.8229 22.7642 55.9471C22.6286 56.0712 22.5198 56.221 22.4442 56.3874C22.3686 56.5539 22.3277 56.7335 22.3241 56.9158V61.1369C22.3241 61.5049 22.4726 61.8581 22.737 62.1183C23.0014 62.3786 23.36 62.5248 23.7339 62.5248C24.1078 62.5248 24.4663 62.3786 24.7307 62.1183C24.9951 61.8581 25.1436 61.5049 25.1436 61.1369V56.973C25.1495 56.7946 25.1191 56.6169 25.0544 56.45C24.9898 56.2833 24.892 56.1309 24.7669 56.0017C24.6417 55.8725 24.4917 55.7692 24.3256 55.6976C24.1595 55.6261 23.9806 55.5878 23.7993 55.5851H23.7775Z" fill="#5E60CE"/>
<path d="M29.5984 55.585C29.417 55.5812 29.2367 55.6126 29.0677 55.6775C28.8987 55.7422 28.7444 55.8392 28.6134 55.9628C28.4825 56.0864 28.3776 56.2342 28.3047 56.3976C28.2318 56.5611 28.1923 56.7372 28.1885 56.9158V62.7322C28.1885 63.1003 28.3371 63.4534 28.6015 63.7136C28.8658 63.9739 29.2244 64.1201 29.5984 64.1201C29.9722 64.1201 30.3308 63.9739 30.5952 63.7136C30.8596 63.4534 31.0081 63.1003 31.0081 62.7322V57.0087C31.0139 56.8303 30.9836 56.6525 30.9189 56.4858C30.8542 56.319 30.7565 56.1666 30.6314 56.0374C30.5062 55.9082 30.3562 55.8048 30.1901 55.7333C30.0239 55.6617 29.845 55.6235 29.6637 55.6208L29.5984 55.585Z" fill="#5E60CE"/>
<path opacity="0.8" d="M49.7218 33.0558C49.7218 35.6675 49.2073 38.2537 48.2079 40.6667C47.2084 43.0797 45.7434 45.2722 43.8966 47.119C42.0498 48.9658 39.8573 50.4308 37.4443 51.4302C35.0314 52.4297 32.4452 52.9442 29.8334 52.9442C27.2216 52.9442 24.6354 52.4297 22.2224 51.4302C19.8094 50.4308 17.617 48.9658 15.7702 47.119C13.9233 45.2722 12.4584 43.0797 11.4589 40.6667C10.4594 38.2537 9.94498 35.6675 9.94498 33.0558C9.94498 27.781 12.0404 22.7223 15.7702 18.9925C19.5 15.2627 24.5586 13.1674 29.8334 13.1674C35.1081 13.1674 40.1668 15.2627 43.8966 18.9925C47.6264 22.7223 49.7218 27.781 49.7218 33.0558Z" fill="#0049BF"/>
<path fill-rule="evenodd" clip-rule="evenodd" d="M24.151 10.3262C24.151 9.94941 24.3007 9.58808 24.5671 9.32166C24.8335 9.05525 25.1948 8.90558 25.5716 8.90558C29.7861 8.90558 33.906 10.1553 37.4102 12.4968C40.9145 14.8383 43.6457 18.1663 45.2585 22.06C46.8714 25.9537 47.2934 30.2382 46.4712 34.3718C45.6489 38.5053 43.6195 42.3022 40.6393 45.2823C37.6592 48.2624 33.8623 50.2919 29.7288 51.1141C25.5952 51.9363 21.3107 51.5144 17.417 49.9015C13.5233 48.2887 10.1953 45.5575 7.85382 42.0532C5.51236 38.549 4.2626 34.4291 4.2626 30.2146C4.2626 29.8378 4.41227 29.4765 4.67869 29.2101C4.9451 28.9436 5.30644 28.794 5.6832 28.794C6.05997 28.794 6.42131 28.9436 6.68772 29.2101C6.95413 29.4765 7.1038 29.8378 7.1038 30.2146C7.1038 33.8672 8.18692 37.4377 10.2162 40.4747C12.2455 43.5117 15.1297 45.8788 18.5043 47.2766C21.8788 48.6744 25.5921 49.0401 29.1745 48.3275C32.7569 47.6149 36.0475 45.8561 38.6303 43.2733C41.2131 40.6905 42.972 37.3999 43.6846 33.8175C44.3971 30.2351 44.0314 26.5218 42.6336 23.1473C41.2358 19.7727 38.8688 16.8884 35.8318 14.8592C32.7947 12.8299 29.2242 11.7468 25.5716 11.7468C25.1948 11.7468 24.8335 11.5971 24.5671 11.3307C24.3007 11.0643 24.151 10.7029 24.151 10.3262Z" fill="#3ABFF8"/>
<path d="M18.4686 11.0365C18.4686 11.6016 18.2441 12.1436 17.8445 12.5433C17.4448 12.9429 16.9028 13.1674 16.3377 13.1674C15.7725 13.1674 15.2305 12.9429 14.8309 12.5433C14.4313 12.1436 14.2068 11.6016 14.2068 11.0365C14.2068 10.4713 14.4313 9.92933 14.8309 9.5297C15.2305 9.13008 15.7725 8.90558 16.3377 8.90558C16.9028 8.90558 17.4448 9.13008 17.8445 9.5297C18.2441 9.92933 18.4686 10.4713 18.4686 11.0365ZM11.3656 15.2983C11.3656 15.8634 11.1411 16.4054 10.7415 16.8051C10.3418 17.2047 9.79983 17.4292 9.23468 17.4292C8.66953 17.4292 8.12753 17.2047 7.72791 16.8051C7.32828 16.4054 7.10378 15.8634 7.10378 15.2983C7.10378 14.7331 7.32828 14.1911 7.72791 13.7915C8.12753 13.3919 8.66953 13.1674 9.23468 13.1674C9.79983 13.1674 10.3418 13.3919 10.7415 13.7915C11.1411 14.1911 11.3656 14.7331 11.3656 15.2983ZM7.10378 22.4013C7.10378 22.9664 6.87928 23.5084 6.47965 23.9081C6.08003 24.3077 5.53803 24.5322 4.97288 24.5322C4.40773 24.5322 3.86573 24.3077 3.46611 23.9081C3.06648 23.5084 2.84198 22.9664 2.84198 22.4013C2.84198 21.8361 3.06648 21.2941 3.46611 20.8945C3.86573 20.4949 4.40773 20.2704 4.97288 20.2704C5.53803 20.2704 6.08003 20.4949 6.47965 20.8945C6.87928 21.2941 7.10378 21.8361 7.10378 22.4013Z" fill="#3ABFF8"/>
<path fill-rule="evenodd" clip-rule="evenodd" d="M12.6356 33.6922C12.8044 33.3554 12.8325 32.9653 12.7136 32.6078C12.5948 32.2503 12.3388 31.9546 12.002 31.7858L6.31962 28.9446C5.9832 28.7793 5.59505 28.7536 5.23979 28.8732C4.88452 28.9928 4.59092 29.248 4.42298 29.5831C4.25503 29.9182 4.22636 30.3062 4.34321 30.6624C4.46005 31.0185 4.71294 31.3141 5.04676 31.4846L10.7292 34.3258C11.066 34.4946 11.4561 34.5227 11.8136 34.4039C12.1711 34.285 12.4668 34.0291 12.6356 33.6922Z" fill="#3ABFF8"/>
<path fill-rule="evenodd" clip-rule="evenodd" d="M6.68897 29.2087C6.82127 29.3407 6.92623 29.4975 6.99785 29.6701C7.06947 29.8426 7.10633 30.0277 7.10633 30.2145C7.10633 30.4014 7.06947 30.5864 6.99785 30.759C6.92623 30.9316 6.82127 31.0883 6.68897 31.2203L2.42718 35.4821C2.1608 35.7489 1.79937 35.8989 1.42239 35.8991C1.04542 35.8994 0.683777 35.7499 0.417026 35.4835C0.150275 35.2172 0.00026677 34.8557 3.55465e-07 34.4787C-0.000266059 34.1018 0.149231 33.7401 0.415605 33.4734L4.6774 29.2116C4.80937 29.0793 4.96613 28.9743 5.13872 28.9027C5.31131 28.8311 5.49633 28.7942 5.68319 28.7942C5.87005 28.7942 6.05507 28.8311 6.22766 28.9027C6.40025 28.9743 6.55701 29.0793 6.68897 29.2116V29.2087ZM25.5716 20.2703C25.9484 20.2703 26.3097 20.42 26.5761 20.6864C26.8425 20.9528 26.9922 21.3142 26.9922 21.6909V30.2145C26.9922 30.5913 26.8425 30.9526 26.5761 31.219C26.3097 31.4855 25.9484 31.6351 25.5716 31.6351C25.1948 31.6351 24.8335 31.4855 24.5671 31.219C24.3007 30.9526 24.151 30.5913 24.151 30.2145V21.6909C24.151 21.3142 24.3007 20.9528 24.5671 20.6864C24.8335 20.42 25.1948 20.2703 25.5716 20.2703Z" fill="#3ABFF8"/>
<path fill-rule="evenodd" clip-rule="evenodd" d="M35.5158 30.2145C35.5158 30.5913 35.3661 30.9526 35.0997 31.2191C34.8333 31.4855 34.472 31.6351 34.0952 31.6351H25.5716C25.1948 31.6351 24.8335 31.4855 24.5671 31.2191C24.3007 30.9526 24.151 30.5913 24.151 30.2145C24.151 29.8378 24.3007 29.4764 24.5671 29.21C24.8335 28.9436 25.1948 28.7939 25.5716 28.7939H34.0952C34.472 28.7939 34.8333 28.9436 35.0997 29.21C35.3661 29.4764 35.5158 29.8378 35.5158 30.2145Z" fill="#3ABFF8"/>
</svg>
